HIERARCHY
ROOT hip
{
  OFFSET 0 90.174 2.4664
  CHANNELS 6 Xposition Yposition Zposition Zrotation Xrotation Yrotation
  JOINT abdomen
  {
    OFFSET 0 -1.186 -1.5018
    CHANNELS 6 Xposition Yposition Zposition Zrotation Xrotation Yrotation
    JOINT abdomen2
    {
      OFFSET 0 9.964 0.2134
      CHANNELS 6 Xposition Yposition Zposition Zrotation Xrotation Yrotation
      JOINT chest
      {
        OFFSET 0 13.134 -3.2573
        CHANNELS 6 Xposition Yposition Zposition Zrotation Xrotation Yrotation
        JOINT neck
        {
          OFFSET 0 20.686 -1.6905
          CHANNELS 6 Xposition Yposition Zposition Zrotation Xrotation Yrotation
          JOINT head
          {
            OFFSET 0 7.238 -0.1237
            CHANNELS 6 Xposition Yposition Zposition Zrotation Xrotation Yrotation
            End Site
            {
              OFFSET 0 0 0
            }
          }
        }
        JOINT lCollar
        {
          OFFSET 1.7069 20.075 5.0056
          CHANNELS 6 Xposition Yposition Zposition Zrotation Xrotation Yrotation
          JOINT lShldr
          {
            OFFSET 13.6458 -0.047 -4.849
            CHANNELS 6 Xposition Yposition Zposition Zrotation Xrotation Yrotation
            JOINT lForeArm
            {
              OFFSET 28.3255 -0.9759 2.2888
              CHANNELS 6 Xposition Yposition Zposition Zrotation Xrotation Yrotation
              JOINT lHand
              {
                OFFSET 22.1583 -0.53 10.8316
                CHANNELS 6 Xposition Yposition Zposition Zrotation Xrotation Yrotation
                JOINT lThumb1
                {
                  OFFSET 0.786 0.112 2.5817
                  CHANNELS 6 Xposition Yposition Zposition Zrotation Xrotation Yrotation
                  JOINT lThumb2
                  {
                    OFFSET 0.3601 -0.878 4.2331
                    CHANNELS 6 Xposition Yposition Zposition Zrotation Xrotation Yrotation
                    JOINT lThumb2_End
                    {
                      OFFSET 1.8127 -1.216 2.2227
                      CHANNELS 6 Xposition Yposition Zposition Zrotation Xrotation Yrotation
                      End Site
                      {
                        OFFSET 0.0181 -0.0122 0.0222
                      }
                    }
                  }
                }
                JOINT lCarpal1
                {
                  OFFSET 0.9571 1.114 1.7695
                  CHANNELS 6 Xposition Yposition Zposition Zrotation Xrotation Yrotation
                  JOINT lIndex1
                  {
                    OFFSET 4.1246 0.487 4.1451
                    CHANNELS 6 Xposition Yposition Zposition Zrotation Xrotation Yrotation
                    JOINT lIndex2
                    {
                      OFFSET 3.4052 -1.454 2.7682
                      CHANNELS 6 Xposition Yposition Zposition Zrotation Xrotation Yrotation
                      JOINT lIndex2_End
                      {
                        OFFSET 1.4531 -1.795 1.2713
                        CHANNELS 6 Xposition Yposition Zposition Zrotation Xrotation Yrotation
                        End Site
                        {
                          OFFSET 0.0145 -0.0179 0.0127
                        }
                      }
                    }
                  }
                  JOINT lMid1
                  {
                    OFFSET 5.6954 0.21 2.1184
                    CHANNELS 6 Xposition Yposition Zposition Zrotation Xrotation Yrotation
                    JOINT lMid2
                    {
                      OFFSET 3.9766 -1.54 2.3863
                      CHANNELS 6 Xposition Yposition Zposition Zrotation Xrotation Yrotation
                      JOINT lMid2_End
                      {
                        OFFSET 1.4042 -1.926 1.125
                        CHANNELS 6 Xposition Yposition Zposition Zrotation Xrotation Yrotation
                        End Site
                        {
                          OFFSET 0.014 -0.0193 0.0113
                        }
                      }
                    }
                  }
                }
                JOINT lCarpal2
                {
                  OFFSET 2.0956 0.66 -0.3894
                  CHANNELS 6 Xposition Yposition Zposition Zrotation Xrotation Yrotation
                  JOINT lRing1
                  {
                    OFFSET 5.0395 -0.09 2.4971
                    CHANNELS 6 Xposition Yposition Zposition Zrotation Xrotation Yrotation
                    JOINT lRing2
                    {
                      OFFSET 3.7921 -1.552 1.4806
                      CHANNELS 6 Xposition Yposition Zposition Zrotation Xrotation Yrotation
                      JOINT lRing2_End
                      {
                        OFFSET 1.4655 -1.808 0.9609
                        CHANNELS 6 Xposition Yposition Zposition Zrotation Xrotation Yrotation
                        End Site
                        {
                          OFFSET 0.0147 -0.0181 0.0096
                        }
                      }
                    }
                  }
                  JOINT lPinky1
                  {
                    OFFSET 4.9141 -1.269 0.3591
                    CHANNELS 6 Xposition Yposition Zposition Zrotation Xrotation Yrotation
                    JOINT lPinky2
                    {
                      OFFSET 3.1477 -1.685 0.8462
                      CHANNELS 6 Xposition Yposition Zposition Zrotation Xrotation Yrotation
                      JOINT lPinky2_End
                      {
                        OFFSET 0.8055 -1.585 0.7955
                        CHANNELS 6 Xposition Yposition Zposition Zrotation Xrotation Yrotation
                        End Site
                        {
                          OFFSET 0.0081 -0.0158 0.008
                        }
                      }
                    }
                  }
                }
              }
            }
          }
        }
        JOINT rCollar
        {
          OFFSET -1.7069 20.075 5.0056
          CHANNELS 6 Xposition Yposition Zposition Zrotation Xrotation Yrotation
          JOINT rShldr
          {
            OFFSET -13.6458 -0.047 -4.849
            CHANNELS 6 Xposition Yposition Zposition Zrotation Xrotation Yrotation
            JOINT rForeArm
            {
              OFFSET -28.3255 -0.9759 2.2888
              CHANNELS 6 Xposition Yposition Zposition Zrotation Xrotation Yrotation
              JOINT rHand
              {
                OFFSET -22.1583 -0.53 10.8316
                CHANNELS 6 Xposition Yposition Zposition Zrotation Xrotation Yrotation
                JOINT rThumb1
                {
                  OFFSET -0.786 0.112 2.5817
                  CHANNELS 6 Xposition Yposition Zposition Zrotation Xrotation Yrotation
                  JOINT rThumb2
                  {
                    OFFSET -0.3601 -0.878 4.2331
                    CHANNELS 6 Xposition Yposition Zposition Zrotation Xrotation Yrotation
                    JOINT rThumb2_End
                    {
                      OFFSET -1.8127 -1.216 2.2227
                      CHANNELS 6 Xposition Yposition Zposition Zrotation Xrotation Yrotation
                      End Site
                      {
                        OFFSET -0.0181 -0.0122 0.0222
                      }
                    }
                  }
                }
                JOINT rCarpal1
                {
                  OFFSET -0.9571 1.114 1.7695
                  CHANNELS 6 Xposition Yposition Zposition Zrotation Xrotation Yrotation
                  JOINT rIndex1
                  {
                    OFFSET -4.1246 0.487 4.1451
                    CHANNELS 6 Xposition Yposition Zposition Zrotation Xrotation Yrotation
                    JOINT rIndex2
                    {
                      OFFSET -3.4052 -1.454 2.7682
                      CHANNELS 6 Xposition Yposition Zposition Zrotation Xrotation Yrotation
                      JOINT rIndex2_End
                      {
                        OFFSET -1.4531 -1.795 1.2713
                        CHANNELS 6 Xposition Yposition Zposition Zrotation Xrotation Yrotation
                        End Site
                        {
                          OFFSET -0.0145 -0.018 0.0127
                        }
                      }
                    }
                  }
                  JOINT rMid1
                  {
                    OFFSET -5.6954 0.21 2.1184
                    CHANNELS 6 Xposition Yposition Zposition Zrotation Xrotation Yrotation
                    JOINT rMid2
                    {
                      OFFSET -3.9766 -1.54 2.3863
                      CHANNELS 6 Xposition Yposition Zposition Zrotation Xrotation Yrotation
                      JOINT rMid2_End
                      {
                        OFFSET -1.4042 -1.926 1.125
                        CHANNELS 6 Xposition Yposition Zposition Zrotation Xrotation Yrotation
                        End Site
                        {
                          OFFSET -0.014 -0.0193 0.0113
                        }
                      }
                    }
                  }
                }
                JOINT rCarpal2
                {
                  OFFSET -2.0956 0.66 -0.3894
                  CHANNELS 6 Xposition Yposition Zposition Zrotation Xrotation Yrotation
                  JOINT rRing1
                  {
                    OFFSET -5.0395 -0.09 2.4971
                    CHANNELS 6 Xposition Yposition Zposition Zrotation Xrotation Yrotation
                    JOINT rRing2
                    {
                      OFFSET -3.7921 -1.552 1.4806
                      CHANNELS 6 Xposition Yposition Zposition Zrotation Xrotation Yrotation
                      JOINT rRing2_End
                      {
                        OFFSET -1.4655 -1.808 0.9609
                        CHANNELS 6 Xposition Yposition Zposition Zrotation Xrotation Yrotation
                        End Site
                        {
                          OFFSET -0.0147 -0.0181 0.0096
                        }
                      }
                    }
                  }
                  JOINT rPinky1
                  {
                    OFFSET -4.9141 -1.269 0.3592
                    CHANNELS 6 Xposition Yposition Zposition Zrotation Xrotation Yrotation
                    JOINT rPinky2
                    {
                      OFFSET -3.1477 -1.685 0.8462
                      CHANNELS 6 Xposition Yposition Zposition Zrotation Xrotation Yrotation
                      JOINT rPinky2_End
                      {
                        OFFSET -0.8055 -1.585 0.7955
                        CHANNELS 6 Xposition Yposition Zposition Zrotation Xrotation Yrotation
                        End Site
                        {
                          OFFSET -0.0081 -0.0158 0.008
                        }
                      }
                    }
                  }
                }
              }
            }
          }
        }
      }
    }
  }
  JOINT lThigh
  {
    OFFSET 8.367 -8.2066 0.5982
    CHANNELS 6 Xposition Yposition Zposition Zrotation Xrotation Yrotation
    JOINT lShin
    {
      OFFSET 2.1923 -43.463 -0.4932
      CHANNELS 6 Xposition Yposition Zposition Zrotation Xrotation Yrotation
      JOINT lFoot
      {
        OFFSET 0.7333 -45.8593 -2.6451
        CHANNELS 6 Xposition Yposition Zposition Zrotation Xrotation Yrotation
        End Site
        {
          OFFSET 2.6618 -4.2699 12.3931
        }
      }
    }
  }
  JOINT rThigh
  {
    OFFSET -8.367 -8.2066 0.5982
    CHANNELS 6 Xposition Yposition Zposition Zrotation Xrotation Yrotation
    JOINT rShin
    {
      OFFSET -2.1923 -43.463 -0.4931
      CHANNELS 6 Xposition Yposition Zposition Zrotation Xrotation Yrotation
      JOINT rFoot
      {
        OFFSET -0.7333 -45.8593 -2.6451
        CHANNELS 6 Xposition Yposition Zposition Zrotation Xrotation Yrotation
        End Site
        {
          OFFSET -2.6618 -4.2699 12.3931
        }
      }
    }
  }
}
MOTION
Frames:	4
Frame Time:	0.0333333
7.7517 30.9591 -1.9837 -90.001 -72.2332 179.999 -7.10543e-015 -1.186 -1.5018 -0.224927 6.17899 -0.708628 3.55271e-015 9.964 0.2134 -0.375762 12.3603 -1.40506 0 13.134 -3.2573 -0.375755 12.3603 -1.40507 -3.55271e-015 20.686 -1.6905 13.2258 10.5697 -2.47259 7.10543e-015 7.238 -0.1237 9.39205 -16.5638 2.69807 1.7069 20.075 5.0056 24.7408 -32.3221 -38.009 13.6458 -0.047 -4.849 -69.4019 -53.3582 -66.7869 28.3255 -0.9759 2.2888 -16.578 12.3246 -9.23462 22.1583 -0.53 10.8316 -19.0307 6.2669 2.92083 0.786 0.112 2.5817 1.79874e-006 -3.32733e-006 3.70665e-006 0.3601 -0.878 4.2331 4.27387e-015 0 4.96962e-015 1.8127 -1.216 2.2227 2.94424e-006 3.68769e-007 1.51427e-006 0.9571 1.114 1.7695 7.00716e-015 0 3.57812e-015 4.1246 0.487 4.1451 1.79874e-006 -3.32733e-006 3.70665e-006 3.4052 -1.454 2.7682 8.10048e-015 3.18055e-015 2.28602e-015 1.4531 -1.795 1.2713 2.94424e-006 3.68769e-007 1.51427e-006 5.6954 0.21 2.1184 1.79874e-006 -3.32733e-006 3.70665e-006 3.9766 -1.54 2.3863 8.10048e-015 3.18055e-015 2.28602e-015 1.4042 -1.926 1.125 2.94424e-006 3.68769e-007 1.51427e-006 2.0956 0.66 -0.3894 7.00716e-015 0 3.57812e-015 5.0395 -0.09 2.4971 1.79874e-006 -3.32733e-006 3.70665e-006 3.7921 -1.552 1.4806 8.10048e-015 3.18055e-015 2.28602e-015 1.4655 -1.808 0.9609 2.94424e-006 3.68769e-007 1.51427e-006 4.9141 -1.269 0.3591 1.79874e-006 -3.32733e-006 3.70665e-006 3.1477 -1.685 0.8462 8.10048e-015 3.18055e-015 2.28602e-015 0.8055 -1.585 0.7955 2.94424e-006 3.68769e-007 1.51427e-006 -1.7069 20.075 5.0056 -31.7392 0.831304 -8.7113 -13.6458 -0.047 -4.849 -43.2818 -12.4968 53.7713 -28.3255 -0.9759 2.2888 -0.900113 0.0208774 10.4315 -22.1583 -0.53 10.8316 6.49223 2.60876 0.0253973 -0.786 0.112 2.5817 -3.18055e-015 -3.18055e-015 -6.36111e-015 -0.3601 -0.878 4.2331 -1.59028e-015 -4.77083e-015 -3.18055e-015 -1.8127 -1.216 2.2227 -0 -3.18055e-015 -0 -0.9571 1.114 1.7695 -7.95139e-016 -1.59028e-015 -3.18055e-015 -4.1246 0.487 4.1451 -1.59028e-015 -3.18055e-015 3.18055e-015 -3.4052 -1.454 2.7682 -4.77083e-015 -3.18055e-015 -0 -1.4531 -1.795 1.2713 -2.38542e-015 -4.77083e-015 -9.54166e-015 -5.6954 0.21 2.1184 -1.59028e-015 -3.18055e-015 3.18055e-015 -3.9766 -1.54 2.3863 -4.77083e-015 -3.18055e-015 -0 -1.4042 -1.926 1.125 -2.38542e-015 -4.77083e-015 -9.54166e-015 -2.0956 0.66 -0.3894 -7.95139e-016 -1.59028e-015 -3.18055e-015 -5.0395 -0.09 2.4971 -1.59028e-015 -3.18055e-015 3.18055e-015 -3.7921 -1.552 1.4806 -4.77083e-015 -3.18055e-015 -0 -1.4655 -1.808 0.9609 -2.38542e-015 -4.77083e-015 -9.54166e-015 -4.9141 -1.269 0.3592 -1.59028e-015 -3.18055e-015 3.18055e-015 -3.1477 -1.685 0.8462 -4.77083e-015 -3.18055e-015 -0 -0.8055 -1.585 0.7955 -2.38542e-015 -4.77083e-015 -9.54166e-015 8.367 -8.2066 0.5982 92.3585 -66.7353 110.085 2.1923 -43.463 -0.4932 -167.792 48.1003 166.96 0.7333 -45.8593 -2.6451 17.9456 1.80626 -4.27896 -8.367 -8.2066 0.5982 18.5228 -2.5952 -0.345265 -2.1923 -43.463 -0.4931 -136.752 68.3363 135.236 -0.7333 -45.8593 -2.6451 -4.18236 16.0038 -0.568126 
7.72243 30.9609 -1.98651 -90.0009 -71.996 179.999 0 -1.186 -1.5018 -0.226298 6.25249 -0.708561 0 9.964 0.2134 -0.37766 12.5073 -1.40477 3.55271e-015 13.134 -3.2573 -0.377633 12.5073 -1.40479 0 20.686 -1.6905 13.2321 10.7112 -2.50647 0 7.238 -0.1237 9.40317 -16.7849 2.73631 1.7069 20.075 5.0056 24.7948 -32.6969 -37.8555 13.6458 -0.047 -4.849 -69.4158 -53.3535 -66.5548 28.3255 -0.9759 2.2888 -16.6302 12.3536 -9.28326 22.1583 -0.53 10.8316 -19.1999 6.31194 2.96505 0.786 0.112 2.5817 -5.66536e-015 -3.18055e-015 7.60351e-015 0.3601 -0.878 4.2331 2.53174e-006 2.74133e-006 5.97013e-006 1.8127 -1.216 2.2227 -7.05443e-007 -1.11166e-006 5.16793e-006 0.9571 1.114 1.7695 -5.26779e-015 -3.18055e-015 2.98177e-015 4.1246 0.487 4.1451 -1.16289e-014 -9.54166e-015 4.96962e-017 3.4052 -1.454 2.7682 2.53174e-006 2.74133e-006 5.97013e-006 1.4531 -1.795 1.2713 -7.05443e-007 -1.11166e-006 5.16793e-006 5.6954 0.21 2.1184 -1.16289e-014 -9.54166e-015 4.96962e-017 3.9766 -1.54 2.3863 2.53174e-006 2.74133e-006 5.97013e-006 1.4042 -1.926 1.125 -7.05443e-007 -1.11166e-006 5.16793e-006 2.0956 0.66 -0.3894 -5.26779e-015 -3.18055e-015 2.98177e-015 5.0395 -0.09 2.4971 -1.16289e-014 -9.54166e-015 4.96962e-017 3.7921 -1.552 1.4806 2.53174e-006 2.74133e-006 5.97013e-006 1.4655 -1.808 0.9609 -7.05443e-007 -1.11166e-006 5.16793e-006 4.9141 -1.269 0.3591 -1.16289e-014 -9.54166e-015 4.96962e-017 3.1477 -1.685 0.8462 2.53174e-006 2.74133e-006 5.97013e-006 0.8055 -1.585 0.7955 -7.05443e-007 -1.11166e-006 5.16793e-006 -1.7069 20.075 5.0056 -31.7393 0.831288 -8.71129 -13.6458 -0.047 -4.849 -43.2818 -12.4968 53.7713 -28.3255 -0.9759 2.2888 -0.900115 0.0208782 10.4315 -22.1583 -0.53 10.8316 6.49223 2.60876 0.0253992 -0.786 0.112 2.5817 -2.64834e-031 -1.59028e-015 -9.54166e-015 -0.3601 -0.878 4.2331 -1.05934e-030 -4.77083e-015 -1.27222e-014 -1.8127 -1.216 2.2227 7.95139e-016 1.59028e-015 -6.36111e-015 -0.9571 1.114 1.7695 -7.95139e-016 0 -3.18055e-015 -4.1246 0.487 4.1451 -7.95139e-016 -4.77083e-015 -0 -3.4052 -1.454 2.7682 -3.53113e-031 -1.59028e-015 -1.27222e-014 -1.4531 -1.795 1.2713 -7.95139e-016 -1.59028e-015 -1.27222e-014 -5.6954 0.21 2.1184 -7.95139e-016 -4.77083e-015 -0 -3.9766 -1.54 2.3863 -3.53113e-031 -1.59028e-015 -1.27222e-014 -1.4042 -1.926 1.125 -7.95139e-016 -1.59028e-015 -1.27222e-014 -2.0956 0.66 -0.3894 -7.95139e-016 0 -3.18055e-015 -5.0395 -0.09 2.4971 -7.95139e-016 -4.77083e-015 -0 -3.7921 -1.552 1.4806 -3.53113e-031 -1.59028e-015 -1.27222e-014 -1.4655 -1.808 0.9609 -7.95139e-016 -1.59028e-015 -1.27222e-014 -4.9141 -1.269 0.3592 -7.95139e-016 -4.77083e-015 -0 -3.1477 -1.685 0.8462 -3.53113e-031 -1.59028e-015 -1.27222e-014 -0.8055 -1.585 0.7955 -7.95139e-016 -1.59028e-015 -1.27222e-014 8.367 -8.2066 0.5982 91.4861 -66.6055 109.275 2.1923 -43.463 -0.4932 -167.826 48.0445 166.977 0.7333 -45.8593 -2.6451 18.1082 1.68125 -4.35237 -8.367 -8.2066 0.5982 18.5112 -2.28117 -0.419495 -2.1923 -43.463 -0.4931 -136.641 68.3922 135.134 -0.7333 -45.8593 -2.6451 -4.18392 15.9961 -0.566392 
7.7517 30.9591 -1.98371 -90.001 -72.2332 179.999 0 -1.186 -1.5018 -0.224927 6.17899 -0.708628 -3.55271e-015 9.964 0.2134 -0.375762 12.3603 -1.40506 0 13.134 -3.2573 -0.375755 12.3603 -1.40507 0 20.686 -1.6905 13.2258 10.5697 -2.47259 0 7.238 -0.1237 9.39205 -16.5638 2.69807 1.7069 20.075 5.0056 24.7821 -32.3312 -38.0516 13.6458 -0.047 -4.849 -69.4019 -53.3582 -66.7869 28.3255 -0.9759 2.2888 -16.578 12.3246 -9.2346 22.1583 -0.53 10.8316 -19.0307 6.26691 2.92083 0.786 0.112 2.5817 1.4277e-006 -3.84345e-007 4.45869e-006 0.3601 -0.878 4.2331 1.5155e-006 7.53359e-007 -2.9432e-006 1.8127 -1.216 2.2227 1.79672e-006 -3.32754e-006 3.70534e-006 0.9571 1.114 1.7695 1.3418e-015 0 -2.6339e-015 4.1246 0.487 4.1451 1.4277e-006 -3.84345e-007 4.45869e-006 3.4052 -1.454 2.7682 1.5155e-006 7.53359e-007 -2.9432e-006 1.4531 -1.795 1.2713 1.79672e-006 -3.32754e-006 3.70534e-006 5.6954 0.21 2.1184 1.4277e-006 -3.84345e-007 4.45869e-006 3.9766 -1.54 2.3863 1.5155e-006 7.53359e-007 -2.9432e-006 1.4042 -1.926 1.125 1.79672e-006 -3.32754e-006 3.70534e-006 2.0956 0.66 -0.3894 1.3418e-015 0 -2.6339e-015 5.0395 -0.09 2.4971 1.4277e-006 -3.84345e-007 4.45869e-006 3.7921 -1.552 1.4806 1.5155e-006 7.53359e-007 -2.9432e-006 1.4655 -1.808 0.9609 1.79672e-006 -3.32754e-006 3.70534e-006 4.9141 -1.269 0.3591 1.4277e-006 -3.84345e-007 4.45869e-006 3.1477 -1.685 0.8462 1.5155e-006 7.53359e-007 -2.9432e-006 0.8055 -1.585 0.7955 1.79672e-006 -3.32754e-006 3.70534e-006 -1.7069 20.075 5.0056 -31.7392 0.831298 -8.7113 -13.6458 -0.047 -4.849 -43.2818 -12.4968 53.7713 -28.3255 -0.9759 2.2888 -0.900114 0.0208795 10.4315 -22.1583 -0.53 10.8316 6.49224 2.60876 0.0253992 -0.786 0.112 2.5817 -8.50526e-007 1.51924e-008 -2.16724e-006 -0.3601 -0.878 4.2331 2.38542e-015 0 -0 -1.8127 -1.216 2.2227 2.38542e-015 0 -3.18055e-015 -0.9571 1.114 1.7695 -8.82781e-032 -1.59028e-015 -3.18055e-015 -4.1246 0.487 4.1451 -8.50526e-007 1.51924e-008 -2.16724e-006 -3.4052 -1.454 2.7682 -8.82781e-032 -1.59028e-015 -3.18055e-015 -1.4531 -1.795 1.2713 -7.95139e-016 0 -0 -5.6954 0.21 2.1184 -8.50526e-007 1.51924e-008 -2.16724e-006 -3.9766 -1.54 2.3863 -8.82781e-032 -1.59028e-015 -3.18055e-015 -1.4042 -1.926 1.125 -7.95139e-016 0 -0 -2.0956 0.66 -0.3894 -8.82781e-032 -1.59028e-015 -3.18055e-015 -5.0395 -0.09 2.4971 -8.50526e-007 1.51924e-008 -2.16724e-006 -3.7921 -1.552 1.4806 -8.82781e-032 -1.59028e-015 -3.18055e-015 -1.4655 -1.808 0.9609 -7.95139e-016 0 -0 -4.9141 -1.269 0.3592 -8.50526e-007 1.51924e-008 -2.16724e-006 -3.1477 -1.685 0.8462 -8.82781e-032 -1.59028e-015 -3.18055e-015 -0.8055 -1.585 0.7955 -7.95139e-016 0 -0 8.367 -8.2066 0.5982 92.3585 -66.7353 110.085 2.1923 -43.463 -0.4932 -167.792 48.1003 166.96 0.7333 -45.8593 -2.6451 17.9456 1.80624 -4.27896 -8.367 -8.2066 0.5982 18.5229 -2.59524 -0.345246 -2.1923 -43.463 -0.4931 -136.752 68.3363 135.236 -0.7333 -45.8593 -2.6451 -4.18235 16.0039 -0.568129 
7.81625 30.9555 -1.97726 -90.0011 -72.7552 179.998 3.55271e-015 -1.186 -1.5018 -0.221925 6.01728 -0.708823 0 9.964 0.2134 -0.371613 12.0368 -1.40578 0 13.134 -3.2573 -0.371609 12.0368 -1.40579 7.10543e-015 20.686 -1.6905 13.2123 10.2586 -2.39815 7.10543e-015 7.238 -0.1237 9.36844 -16.0772 2.61434 1.7069 20.075 5.0056 24.7366 -31.523 -38.4564 13.6458 -0.047 -4.849 -69.3715 -53.3671 -67.2973 28.3255 -0.9759 2.2888 -16.4633 12.2606 -9.12754 22.1583 -0.53 10.8316 -18.6585 6.16753 2.82409 0.786 0.112 2.5817 1.14301e-015 -1.59028e-014 -7.95139e-016 0.3601 -0.878 4.2331 -1.3418e-015 -9.54166e-015 -2.43511e-015 1.8127 -1.216 2.2227 9.44227e-016 0 -1.68967e-015 0.9571 1.114 1.7695 1.3418e-015 -3.18055e-015 -9.44227e-016 4.1246 0.487 4.1451 -3.97569e-015 -1.27222e-014 3.67752e-015 3.4052 -1.454 2.7682 3.08116e-015 -3.18055e-015 -3.08116e-015 1.4531 -1.795 1.2713 -2.48481e-015 -3.18055e-015 1.83876e-015 5.6954 0.21 2.1184 -3.97569e-015 -1.27222e-014 3.67752e-015 3.9766 -1.54 2.3863 3.08116e-015 -3.18055e-015 -3.08116e-015 1.4042 -1.926 1.125 -2.48481e-015 -3.18055e-015 1.83876e-015 2.0956 0.66 -0.3894 1.3418e-015 -3.18055e-015 -9.44227e-016 5.0395 -0.09 2.4971 -3.97569e-015 -1.27222e-014 3.67752e-015 3.7921 -1.552 1.4806 3.08116e-015 -3.18055e-015 -3.08116e-015 1.4655 -1.808 0.9609 -2.48481e-015 -3.18055e-015 1.83876e-015 4.9141 -1.269 0.3591 -3.97569e-015 -1.27222e-014 3.67752e-015 3.1477 -1.685 0.8462 3.08116e-015 -3.18055e-015 -3.08116e-015 0.8055 -1.585 0.7955 -2.48481e-015 -3.18055e-015 1.83876e-015 -1.7069 20.075 5.0056 -31.7392 0.831303 -8.71129 -13.6458 -0.047 -4.849 -43.2818 -12.4968 53.7713 -28.3255 -0.9759 2.2888 -0.900114 0.0208796 10.4315 -22.1583 -0.53 10.8316 6.49223 2.60875 0.0253979 -0.786 0.112 2.5817 0 4.77083e-015 -0 -0.3601 -0.878 4.2331 3.18055e-015 3.18055e-015 3.18055e-015 -1.8127 -1.216 2.2227 2.38542e-015 1.59028e-015 3.18055e-015 -0.9571 1.114 1.7695 -1.59028e-015 1.59028e-015 -0 -4.1246 0.487 4.1451 -7.95139e-016 0 1.27222e-014 -3.4052 -1.454 2.7682 7.95139e-016 4.77083e-015 3.18055e-015 -1.4531 -1.795 1.2713 7.95139e-016 3.18055e-015 -0 -5.6954 0.21 2.1184 -7.95139e-016 0 1.27222e-014 -3.9766 -1.54 2.3863 7.95139e-016 4.77083e-015 3.18055e-015 -1.4042 -1.926 1.125 7.95139e-016 3.18055e-015 -0 -2.0956 0.66 -0.3894 -1.59028e-015 1.59028e-015 -0 -5.0395 -0.09 2.4971 -7.95139e-016 0 1.27222e-014 -3.7921 -1.552 1.4806 7.95139e-016 4.77083e-015 3.18055e-015 -1.4655 -1.808 0.9609 7.95139e-016 3.18055e-015 -0 -4.9141 -1.269 0.3592 -7.95139e-016 0 1.27222e-014 -3.1477 -1.685 0.8462 7.95139e-016 4.77083e-015 3.18055e-015 -0.8055 -1.585 0.7955 7.95139e-016 3.18055e-015 -0 8.367 -8.2066 0.5982 94.3108 -67.0038 111.904 2.1923 -43.463 -0.4932 -167.715 48.2229 166.921 0.7333 -45.8593 -2.6451 17.5866 2.08094 -4.1172 -8.367 -8.2066 0.5982 18.5507 -3.28652 -0.181122 -2.1923 -43.463 -0.4931 -136.993 68.2129 135.458 -0.7333 -45.8593 -2.6451 -4.17884 16.0211 -0.57186 
